<mxfile host="app.diagrams.net" modified="2023-10-23T03:30:47.853Z" agent="Mozilla/5.0 (Windows NT 10.0; Win64; x64) AppleWebKit/537.36 (KHTML, like Gecko) Chrome/118.0.0.0 Safari/537.36" version="22.0.6" etag="npXTCAbuBgIFK_PdZf6c" type="github">
  <diagram name="Page-1" id="JeyCX52DzBTzACsFgG72">
    <mxGraphModel>
      <root>
        <mxCell id="0" />
        <mxCell id="1" parent="0" />
      </root>
    </mxGraphModel>
  </diagram>
</mxfile>
